<svg xmlns="http://www.w3.org/2000/svg" xmlns:xlink="http://www.w3.org/1999/xlink" width="378" zoomAndPan="magnify" viewBox="0 0 283.5 283.500005" height="378" preserveAspectRatio="xMidYMid meet" version="1.0"><defs><clipPath id="950290c6b4"><path d="M 0.882812 0.882812 L 262.160156 0.882812 L 262.160156 262.160156 L 0.882812 262.160156 Z M 0.882812 0.882812 " clip-rule="nonzero"/></clipPath><clipPath id="ecab3e962d"><path d="M 44 38 L 224 38 L 224 244.558594 L 44 244.558594 Z M 44 38 " clip-rule="nonzero"/></clipPath><clipPath id="039ad46b35"><path d="M 209.1875 87.25 L 253.496094 87.25 L 253.496094 131.492188 L 209.1875 131.492188 Z M 209.1875 87.25 " clip-rule="nonzero"/></clipPath><clipPath id="1c160901de"><path d="M 205.097656 113 L 218 113 L 218 126 L 205.097656 126 Z M 205.097656 113 " clip-rule="nonzero"/></clipPath><clipPath id="c9e3cd7a89"><path d="M 236.679688 83.617188 L 256.011719 83.617188 L 256.011719 103 L 236.679688 103 Z M 236.679688 83.617188 " clip-rule="nonzero"/></clipPath><clipPath id="8e1930a2af"><path d="M 84.542969 12.082031 L 128.851562 12.082031 L 128.851562 56.324219 L 84.542969 56.324219 Z M 84.542969 12.082031 " clip-rule="nonzero"/></clipPath><clipPath id="9186eb82f8"><path d="M 80.453125 37 L 94 37 L 94 51 L 80.453125 51 Z M 80.453125 37 " clip-rule="nonzero"/></clipPath><clipPath id="ce7391d8b4"><path d="M 112.039062 8.445312 L 131.371094 8.445312 L 131.371094 27.875 L 112.039062 27.875 Z M 112.039062 8.445312 " clip-rule="nonzero"/></clipPath><clipPath id="1a7f26161d"><rect x="0" width="263" y="0" height="263"/></clipPath></defs><g transform="matrix(1, 0, 0, 1, 10, 10)"><g clip-path="url(#1a7f26161d)"><g clip-path="url(#950290c6b4)"><path fill="#b3c8cf" d="M 230.816406 42.3125 C 225.707031 33.464844 216.445312 28.515625 206.914062 28.511719 L 206.917969 28.507812 C 197.386719 28.5 188.121094 23.550781 183.015625 14.707031 C 175.394531 1.507812 158.515625 -3.015625 145.316406 4.605469 L 145.3125 4.609375 L 145.3125 4.597656 C 137.113281 9.324219 126.710938 9.695312 117.902344 4.703125 C 113.796875 2.285156 109.015625 0.898438 103.910156 0.898438 C 93.695312 0.898438 84.78125 6.449219 80.007812 14.695312 C 75.234375 22.941406 66.316406 28.492188 56.101562 28.492188 C 40.859375 28.492188 28.503906 40.847656 28.503906 56.089844 L 28.503906 56.09375 L 28.496094 56.089844 C 28.488281 65.546875 23.613281 74.742188 14.894531 79.875 C 10.746094 82.214844 7.148438 85.664062 4.59375 90.09375 C -0.515625 98.9375 -0.167969 109.4375 4.589844 117.695312 C 9.34375 125.949219 9.691406 136.445312 4.585938 145.292969 C -3.035156 158.492188 1.484375 175.371094 14.6875 182.992188 L 14.6875 182.996094 L 14.683594 183 C 22.933594 187.769531 28.480469 196.6875 28.480469 206.902344 C 28.480469 222.144531 40.835938 234.5 56.078125 234.5 C 66.292969 234.5 75.207031 240.046875 79.980469 248.296875 C 84.753906 256.542969 93.671875 262.097656 103.886719 262.097656 C 108.992188 262.097656 113.773438 260.707031 117.875 258.289062 C 126.679688 253.296875 137.089844 253.671875 145.289062 258.394531 L 145.289062 258.386719 L 145.289062 258.390625 C 158.492188 266.011719 175.367188 261.488281 182.992188 248.289062 C 188.097656 239.441406 197.363281 234.492188 206.890625 234.484375 L 206.890625 234.480469 C 216.417969 234.476562 225.683594 229.527344 230.789062 220.679688 C 233.304688 216.328125 234.496094 211.570312 234.492188 206.878906 L 234.496094 206.882812 C 234.503906 197.691406 239.109375 188.742188 247.375 183.539062 C 251.832031 181.195312 255.699219 177.605469 258.398438 172.925781 C 263.507812 164.078125 263.160156 153.578125 258.402344 145.324219 L 258.40625 145.324219 C 253.648438 137.066406 253.300781 126.570312 258.40625 117.722656 C 266.03125 104.523438 261.507812 87.644531 248.304688 80.023438 L 248.304688 80.019531 L 248.308594 80.019531 C 240.125 75.285156 234.601562 66.46875 234.515625 56.355469 C 234.5625 51.585938 233.371094 46.742188 230.816406 42.3125 " fill-opacity="1" fill-rule="nonzero"/></g><g clip-path="url(#ecab3e962d)"><path fill="#ffffff" d="M 219.335938 118.144531 C 212.503906 93.851562 198.332031 75.378906 179.355469 66.015625 C 154.304688 53.617188 129 56.402344 103.949219 74.621094 C 103.441406 73.859375 102.9375 73.355469 102.179688 72.847656 C 100.914062 71.835938 99.394531 71.332031 97.875 71.078125 C 97.117188 69.054688 95.851562 65.765625 93.320312 64.246094 C 92.5625 63.738281 91.550781 63.488281 90.539062 63.234375 C 90.03125 60.957031 88.765625 57.160156 86.234375 55.136719 C 85.476562 54.628906 84.464844 54.125 83.453125 53.871094 C 82.945312 51.59375 81.679688 48.304688 79.402344 46.785156 C 78.140625 46.027344 76.875 45.519531 75.609375 45.519531 C 73.835938 42.484375 69.789062 39.449219 67.003906 38.433594 C 65.488281 37.929688 64.222656 38.183594 63.460938 38.6875 C 59.921875 41.472656 64.980469 55.390625 67.765625 60.449219 C 67.511719 63.992188 69.535156 68.800781 72.570312 70.824219 C 72.824219 74.367188 74.847656 79.429688 79.402344 81.453125 C 79.402344 83.984375 80.164062 86.511719 81.429688 88.789062 C 78.390625 89.296875 75.355469 88.789062 71.8125 87.019531 C 65.992188 83.984375 61.691406 78.414062 61.4375 76.644531 C 61.183594 75.886719 60.679688 75.125 59.667969 74.875 C 58.90625 74.621094 57.894531 75.125 57.390625 75.886719 C 52.835938 82.96875 48.785156 98.660156 54.351562 110.550781 C 57.390625 117.132812 62.957031 121.433594 70.292969 123.457031 C 65.738281 128.519531 60.425781 133.578125 55.871094 136.363281 C 48.027344 140.917969 41.195312 144.964844 47.269531 157.113281 L 47.773438 157.871094 C 50.304688 163.183594 55.113281 172.800781 67.765625 172.800781 C 71.308594 172.800781 75.355469 172.039062 79.910156 170.269531 C 84.71875 168.5 91.042969 169.003906 97.625 169.761719 C 103.949219 170.269531 110.78125 171.027344 117.613281 169.761719 C 117.359375 172.039062 117.359375 173.8125 117.359375 175.078125 C 80.667969 191.523438 83.199219 212.273438 85.984375 220.625 C 90.539062 234.035156 105.46875 244.664062 118.121094 244.664062 C 119.890625 244.664062 121.660156 244.410156 123.179688 243.90625 C 123.9375 243.652344 124.445312 243.144531 124.699219 242.386719 C 161.894531 212.78125 195.042969 202.910156 208.960938 201.898438 C 209.71875 201.898438 210.226562 201.394531 210.734375 200.886719 C 224.144531 179.632812 227.6875 146.988281 219.335938 118.144531 Z M 106.734375 88.03125 C 107.238281 89.296875 107.746094 90.5625 108.25 91.574219 C 108.757812 92.585938 109.011719 93.597656 109.515625 94.609375 C 107.746094 95.117188 105.972656 96.128906 103.949219 96.886719 C 105.46875 94.355469 106.480469 91.320312 106.734375 88.03125 Z M 102.9375 82.96875 C 103.191406 90.816406 99.394531 98.40625 96.359375 100.683594 C 94.585938 99.925781 91.042969 97.648438 90.539062 93.851562 C 94.839844 90.816406 98.636719 82.210938 98.886719 75.378906 C 99.140625 75.632812 99.648438 75.632812 99.902344 75.886719 C 101.925781 77.65625 102.683594 81.453125 102.9375 82.96875 Z M 94.585938 73.355469 C 95.09375 79.429688 91.550781 87.273438 88.511719 90.054688 C 84.71875 87.273438 83.957031 83.730469 83.957031 81.199219 C 87.753906 78.667969 90.792969 72.847656 91.296875 67.535156 C 93.070312 68.800781 94.082031 72.089844 94.585938 73.355469 Z M 66.5 42.738281 C 68.269531 43.75 71.558594 46.28125 72.320312 48.304688 C 72.320312 50.835938 71.558594 54.375 70.546875 56.402344 C 68.269531 51.59375 66.5 45.519531 66.5 42.738281 Z M 72.066406 61.207031 C 75.101562 58.679688 76.367188 53.363281 76.621094 49.820312 C 76.875 49.820312 76.875 49.820312 77.125 50.074219 C 78.644531 51.339844 79.65625 54.628906 79.65625 55.894531 C 79.65625 58.679688 77.632812 64.75 75.101562 67.027344 C 73.332031 66.269531 72.066406 63.488281 72.066406 61.207031 Z M 77.125 70.824219 C 80.921875 68.292969 83.199219 62.222656 83.707031 58.171875 C 83.707031 58.171875 83.957031 58.171875 83.957031 58.171875 C 85.984375 59.691406 86.742188 63.738281 86.996094 65.257812 C 87.25 69.558594 84.71875 75.125 81.679688 77.402344 C 78.644531 76.390625 77.378906 73.101562 77.125 70.824219 Z M 70.042969 90.816406 C 75.101562 93.34375 79.910156 93.851562 84.464844 92.332031 C 84.972656 92.839844 85.476562 93.34375 86.234375 93.597656 C 86.488281 98.152344 89.273438 101.191406 91.804688 102.960938 C 83.957031 105.492188 75.355469 103.71875 69.03125 98.40625 C 64.222656 94.355469 61.183594 88.789062 60.679688 82.96875 C 62.957031 85.753906 66.246094 88.789062 70.042969 90.816406 Z M 58.402344 108.78125 C 55.113281 101.441406 55.871094 92.078125 58.148438 85.246094 C 59.160156 91.066406 62.449219 96.632812 67.257812 100.683594 C 72.320312 104.730469 78.390625 107.007812 84.464844 107.007812 C 85.476562 107.007812 86.488281 107.007812 87.5 106.757812 C 84.972656 108.78125 82.695312 110.550781 80.667969 112.578125 C 79.152344 114.09375 77.125 116.117188 75.101562 118.648438 C 74.847656 119.15625 74.34375 119.410156 73.835938 119.914062 C 66.5 118.648438 61.183594 114.855469 58.402344 108.78125 Z M 140.640625 152.304688 C 141.144531 151.292969 140.894531 150.027344 139.628906 149.265625 C 138.617188 148.761719 137.351562 149.015625 136.84375 150.28125 C 126.976562 168.5 112.550781 167.234375 98.382812 165.96875 C 91.296875 165.207031 84.464844 164.703125 78.644531 166.726562 C 75.101562 167.992188 72.066406 168.75 69.535156 168.75 C 71.8125 165.714844 71.8125 162.679688 71.8125 162.425781 C 71.8125 161.160156 70.800781 160.148438 69.535156 160.148438 C 68.269531 160.148438 67.257812 161.160156 67.257812 162.425781 C 67.257812 162.425781 67.003906 165.714844 63.460938 168.246094 C 56.628906 166.472656 53.59375 160.402344 51.570312 156.351562 L 51.0625 155.59375 C 47.015625 147.242188 49.292969 145.472656 57.894531 140.410156 C 64.476562 136.613281 71.8125 128.519531 77.886719 121.9375 C 80.164062 119.660156 81.933594 117.382812 83.453125 116.117188 C 89.777344 110.046875 102.429688 101.695312 112.804688 98.660156 C 113.3125 98.40625 113.816406 98.152344 114.070312 97.648438 C 114.324219 97.140625 114.324219 96.382812 114.070312 95.875 C 113.3125 94.105469 112.550781 92.332031 111.792969 90.5625 C 109.769531 86.007812 107.492188 80.441406 109.011719 78.414062 C 109.261719 77.910156 111.539062 77.152344 115.589844 77.402344 C 123.179688 78.164062 133.554688 82.71875 138.617188 93.09375 C 138.867188 93.597656 139.121094 93.851562 139.628906 94.105469 C 139.628906 94.105469 139.882812 94.355469 139.882812 94.355469 C 150.253906 101.695312 160.882812 116.878906 159.113281 133.324219 C 157.59375 149.265625 144.6875 163.183594 121.660156 173.8125 C 121.660156 172.546875 121.914062 171.027344 121.914062 169.257812 C 129.253906 166.472656 135.578125 161.667969 140.640625 152.304688 Z M 121.410156 239.855469 C 121.410156 239.855469 121.15625 240.109375 121.15625 240.109375 C 120.902344 240.109375 120.398438 240.109375 120.144531 240.363281 C 113.3125 234.035156 110.023438 227.964844 110.78125 221.890625 C 111.792969 211.007812 123.9375 199.621094 149.75 184.945312 C 165.945312 175.835938 174.800781 159.390625 174.292969 140.15625 C 173.789062 122.699219 165.4375 107.261719 152.53125 99.671875 C 149.75 96.382812 146.964844 93.597656 143.929688 91.320312 C 153.796875 91.320312 163.667969 94.105469 170.753906 99.164062 C 196.816406 117.132812 204.914062 149.015625 190.742188 178.367188 C 186.695312 186.71875 177.585938 192.789062 168.726562 198.355469 C 158.351562 204.9375 147.726562 212.019531 145.699219 222.902344 C 137.855469 227.710938 129.757812 233.277344 121.410156 239.855469 Z M 90.285156 219.359375 C 84.972656 204.175781 96.105469 189.246094 120.902344 178.621094 C 154.050781 164.195312 162.65625 145.976562 163.917969 133.324219 C 164.933594 123.964844 162.402344 115.105469 158.101562 107.515625 C 165.945312 115.359375 171.003906 127.503906 171.511719 140.15625 C 172.015625 158.125 163.667969 173.558594 148.484375 182.164062 C 121.660156 197.34375 109.261719 209.492188 107.996094 221.382812 C 107.238281 227.710938 110.023438 234.035156 116.09375 240.109375 C 105.972656 239.097656 94.332031 231 90.285156 219.359375 Z M 207.695312 197.851562 C 196.5625 199.117188 174.800781 205.1875 148.992188 220.625 C 151.773438 212.273438 160.628906 206.707031 169.992188 200.632812 C 179.101562 194.816406 188.71875 188.488281 193.273438 179.378906 C 207.949219 148.507812 199.597656 115.359375 172.269531 96.632812 C 164.171875 91.066406 152.785156 88.03125 141.652344 88.539062 C 135.578125 78.164062 124.445312 73.609375 116.601562 72.847656 C 116.09375 72.847656 115.335938 72.847656 114.828125 72.847656 C 135.832031 60.449219 156.835938 59.4375 177.585938 69.8125 C 195.296875 78.667969 208.707031 96.128906 215.289062 119.410156 C 223.132812 146.484375 220.09375 177.355469 207.695312 197.851562 Z M 111.792969 120.925781 C 111.539062 123.457031 110.78125 124.976562 109.769531 125.988281 C 109.769531 126.242188 109.769531 126.242188 109.769531 126.492188 C 109.261719 127.503906 107.996094 128.265625 106.984375 127.757812 C 102.179688 125.988281 98.128906 125.734375 95.597656 127.253906 C 93.070312 128.519531 92.5625 131.046875 92.308594 131.046875 C 92.054688 132.058594 91.296875 132.566406 90.285156 132.566406 C 90.03125 132.566406 90.03125 132.566406 89.777344 132.566406 C 88.511719 132.3125 88.007812 131.046875 88.261719 130.035156 C 88.261719 129.78125 89.273438 125.734375 93.574219 123.457031 C 95.09375 122.699219 96.609375 122.191406 98.382812 121.9375 C 98.636719 120.421875 98.382812 119.15625 98.382812 119.15625 C 98.128906 118.394531 98.636719 117.636719 99.394531 117.382812 C 100.152344 117.132812 100.914062 117.636719 101.164062 118.394531 C 101.164062 118.394531 101.417969 120.167969 101.164062 121.9375 C 101.925781 121.9375 102.429688 122.191406 103.191406 122.191406 C 103.695312 120.925781 103.695312 119.660156 103.695312 119.660156 C 103.695312 118.902344 104.203125 118.144531 104.960938 118.144531 C 105.71875 118.144531 106.480469 118.648438 106.480469 119.410156 C 106.480469 119.410156 106.480469 120.925781 105.972656 122.699219 C 106.734375 122.949219 107.238281 123.203125 107.996094 123.457031 C 108.25 122.949219 108.757812 122.191406 108.757812 120.671875 C 108.757812 119.914062 109.515625 119.15625 110.273438 119.410156 C 111.289062 119.410156 111.792969 120.167969 111.792969 120.925781 Z M 55.617188 148.253906 C 54.351562 149.265625 54.351562 150.28125 54.351562 150.785156 C 54.605469 152.558594 56.378906 154.074219 57.644531 154.835938 C 57.390625 155.339844 57.390625 155.847656 57.136719 156.351562 C 56.882812 157.113281 57.136719 157.871094 57.894531 158.375 C 58.148438 158.375 58.402344 158.628906 58.65625 158.628906 C 59.160156 158.628906 59.667969 158.375 59.921875 157.871094 C 61.945312 154.074219 61.945312 150.027344 59.921875 148.253906 C 58.402344 147.242188 56.882812 147.242188 55.617188 148.253906 Z M 57.136719 150.53125 C 57.390625 150.28125 57.390625 150.28125 57.390625 150.28125 C 57.644531 150.28125 57.894531 150.785156 57.894531 151.542969 C 57.390625 151.292969 57.136719 150.785156 57.136719 150.53125 Z M 121.15625 85.753906 C 120.398438 85.246094 119.636719 85.5 119.132812 86.261719 C 118.625 87.019531 118.878906 87.777344 119.636719 88.285156 C 120.398438 88.789062 120.902344 89.042969 121.410156 89.550781 C 121.15625 89.800781 120.648438 90.054688 120.648438 90.5625 C 120.648438 91.066406 120.398438 93.09375 121.660156 94.355469 C 121.914062 94.609375 122.675781 95.117188 123.433594 95.117188 C 123.6875 95.117188 123.9375 95.117188 124.191406 95.117188 C 126.214844 94.609375 126.722656 93.34375 126.722656 92.839844 C 127.480469 89.800781 123.6875 87.019531 121.15625 85.753906 Z M 123.6875 92.078125 C 123.6875 91.828125 123.433594 91.574219 123.6875 91.066406 C 124.191406 91.574219 124.191406 91.828125 124.191406 91.828125 C 124.191406 91.828125 124.191406 91.828125 123.6875 92.078125 Z M 123.6875 92.078125 " fill-opacity="1" fill-rule="nonzero"/></g><g clip-path="url(#039ad46b35)"><path fill="#ffffff" d="M 231.3125 87.296875 C 230.738281 108.355469 230.269531 108.820312 209.214844 109.394531 C 230.269531 109.96875 230.738281 110.4375 231.3125 131.492188 C 231.886719 110.4375 232.351562 109.96875 253.410156 109.394531 C 232.351562 108.820312 231.886719 108.355469 231.3125 87.296875 " fill-opacity="1" fill-rule="nonzero"/></g><g clip-path="url(#1c160901de)"><path fill="#ffffff" d="M 211.46875 113.125 C 211.304688 119.199219 211.167969 119.332031 205.097656 119.5 C 211.167969 119.664062 211.304688 119.800781 211.46875 125.871094 C 211.632812 119.800781 211.769531 119.664062 217.839844 119.5 C 211.769531 119.332031 211.632812 119.199219 211.46875 113.125 " fill-opacity="1" fill-rule="nonzero"/></g><g clip-path="url(#c9e3cd7a89)"><path fill="#ffffff" d="M 246.464844 102.976562 C 246.714844 93.753906 246.921875 93.546875 256.144531 93.296875 C 246.921875 93.046875 246.714844 92.839844 246.464844 83.617188 C 246.210938 92.839844 246.007812 93.046875 236.78125 93.296875 C 246.007812 93.546875 246.210938 93.753906 246.464844 102.976562 " fill-opacity="1" fill-rule="nonzero"/></g><g clip-path="url(#8e1930a2af)"><path fill="#ffffff" d="M 106.667969 12.128906 C 106.09375 33.1875 105.628906 33.652344 84.574219 34.226562 C 105.628906 34.800781 106.09375 35.269531 106.667969 56.324219 C 107.246094 35.269531 107.710938 34.800781 128.765625 34.226562 C 107.710938 33.652344 107.246094 33.1875 106.667969 12.128906 " fill-opacity="1" fill-rule="nonzero"/></g><g clip-path="url(#9186eb82f8)"><path fill="#ffffff" d="M 86.828125 37.957031 C 86.660156 44.03125 86.527344 44.164062 80.453125 44.332031 C 86.527344 44.496094 86.660156 44.628906 86.828125 50.703125 C 86.992188 44.628906 87.128906 44.496094 93.199219 44.332031 C 87.128906 44.164062 86.992188 44.03125 86.828125 37.957031 " fill-opacity="1" fill-rule="nonzero"/></g><g clip-path="url(#ce7391d8b4)"><path fill="#ffffff" d="M 121.820312 27.808594 C 122.074219 18.585938 122.277344 18.378906 131.503906 18.128906 C 122.277344 17.875 122.074219 17.671875 121.820312 8.449219 C 121.570312 17.671875 121.367188 17.875 112.140625 18.128906 C 121.367188 18.378906 121.570312 18.585938 121.820312 27.808594 " fill-opacity="1" fill-rule="nonzero"/></g></g></g></svg>